<?xml version="1.0" encoding="UTF-8"?>
<svg id="Layer_1" data-name="Layer 1" xmlns="http://www.w3.org/2000/svg" viewBox="0 0 836.21 477.05">
  <defs>
    <style>
      .cls-1 {
        fill: #e86a31;
      }

      .cls-1, .cls-2 {
        stroke-width: 0px;
      }

      .cls-2 {
        fill: #1d2856;
      }
    </style>
  </defs>
  <g>
    <path class="cls-1" d="M306.59,449.22l-7.95,8.49v18.81h-21.07v-75.23h21.07v31.28l29.13-31.28h23.43l-30.74,33.32,32.35,41.92h-24.72l-21.49-27.3Z"/>
    <path class="cls-1" d="M427.39,460.07v16.44h-60.4v-75.23h59v16.44h-37.94v12.68h33.42v15.91h-33.42v13.76h39.34Z"/>
    <path class="cls-1" d="M487.46,449.54v26.98h-21.28v-27.3l-28.7-47.93h22.46l17.84,29.88,17.84-29.88h20.64l-28.8,48.26Z"/>
    <path class="cls-2" d="M550.22,406.23h-27.08v-4.94h59.65v4.94h-27.08v70.29h-5.48v-70.29Z"/>
    <path class="cls-2" d="M647.7,455.34h-43.63l-9.57,21.17h-5.91l34.61-75.23h5.48l34.61,75.23h-5.91l-9.67-21.17ZM645.66,450.72l-19.78-43.42-19.67,43.42h39.44Z"/>
    <path class="cls-2" d="M746.79,456.63c0,12.68-9.24,19.88-27.73,19.88h-33.53v-75.23h31.38c16.12,0,25.9,6.77,25.9,19.24,0,8.92-5.05,14.72-12.58,17.2,10.64,2.04,16.55,8.49,16.55,18.91ZM691.01,406.01v29.98h25.69c13,0,20.53-5.05,20.53-15.05s-7.52-14.94-20.53-14.94h-25.69ZM741.3,456.2c0-10.75-7.85-15.48-22.25-15.48h-28.05v31.06h28.05c14.4,0,22.25-4.73,22.25-15.58Z"/>
    <path class="cls-2" d="M774.3,444.6v-43.31h5.48v43.1c0,18.81,9.03,27.62,24.72,27.62s24.61-8.81,24.61-27.62v-43.1h5.48v43.31c0,21.49-11.5,32.46-30.2,32.46s-30.09-10.96-30.09-32.46Z"/>
  </g>
  <g>
    <path class="cls-2" d="M277.57,323.4c0,76.53-62.26,138.79-138.79,138.79C62.26,462.18,0,399.92,0,323.4c0-76.53,62.26-138.79,138.79-138.79,76.53,0,138.79,62.26,138.79,138.79ZM23.01,323.4c0,63.84,51.93,115.77,115.77,115.77,63.84,0,115.77-51.94,115.77-115.77,0-63.84-51.94-115.77-115.77-115.77-63.84,0-115.77,51.94-115.77,115.77Z"/>
    <path class="cls-2" d="M373.37,323.4c0,29.8-24.24,54.04-54.04,54.04-29.8,0-54.04-24.24-54.04-54.04,0-29.8,24.24-54.04,54.04-54.04,29.8,0,54.04,24.24,54.04,54.04ZM288.31,323.4c0,17.11,13.92,31.02,31.02,31.02,17.11,0,31.02-13.92,31.02-31.02,0-17.11-13.92-31.02-31.02-31.02-17.11,0-31.02,13.92-31.02,31.02Z"/>
    <rect class="cls-2" x="359.33" y="311.89" width="476.89" height="23.01"/>
    <g>
      <path class="cls-2" d="M712.86,33.29c0,1.9,0,3.79,0,5.69,0,16.17-.14,32.35.11,48.52.04,2.91-.82,4.47-2.94,6.18-12.51,10.12-24.91,20.38-37.34,30.59-.65.53-1.34,1.04-1.86,1.68-1.12,1.38-1.01,3.73.19,4.84,1.5,1.4,2.84.85,4.24-.31,9.41-7.77,18.85-15.49,28.28-23.24,16.21-13.31,32.41-26.63,48.62-39.93.68-.56,1.4-1.06,2.47-1.86.12,1.09.25,1.73.26,2.37.02,6.41.08,12.82-.06,19.22-.03,1.09-.72,2.52-1.58,3.19-33.21,25.99-66.48,51.9-99.7,77.88-1.4,1.09-2.24.91-3.53-.1-31.96-24.98-63.9-50-96.03-74.78-3.9-3.01-5.83-5.94-5.31-10.92.47-4.6.09-9.3.11-13.95,0-.8.08-1.6.16-2.96,1.12.83,1.84,1.31,2.5,1.86,25.64,21.05,51.28,42.1,76.9,63.17,1.48,1.22,2.88,1.8,4.41.26,1.29-1.3,1.18-3.82-.33-5.17-2.1-1.89-4.32-3.63-6.5-5.42-11.32-9.29-22.63-18.58-33.98-27.84-1.05-.85-1.67-1.65-1.22-3.08.22-.7.08-1.51.08-2.28,0-16.94,0-33.87-.01-50.81,0-.95,0-1.91.53-3.01.35.52.76,1.01,1.05,1.56,14.82,28.2,29.63,56.41,44.44,84.61.21.4.45.8.65,1.21.77,1.51,1.89,2.57,3.65,1.89,1.77-.68,2.14-2.29,1.8-4-.14-.73-.53-1.42-.88-2.09-16.87-32.12-33.75-64.23-50.64-96.33-.92-1.74-1.49-4.26-4.29-3.49-2.71.75-2.1,3.22-2.1,5.19-.03,20.52-.02,41.04-.03,61.56,0,.81,0,1.62,0,3.04-1.17-.83-1.91-1.29-2.57-1.83-11.26-9.23-22.5-18.5-33.82-27.66-.93-.75-2.86-1.5-3.55-1.05-1.04.68-1.91,2.39-1.94,3.69-.18,7.24-.09,14.49-.09,21.74,0,.88,0,1.76,0,3.39-6.84-5.3-13.1-10.16-19.73-15.31v2.45c0,45.77.02,91.54-.05,137.31,0,2.06.68,3.32,2.25,4.54,39.11,30.45,78.19,60.94,117.28,91.42,2.95,2.3,5.92,4.56,9.06,6.99,4.73-3.68,9.48-7.35,14.21-11.04,37.22-29.03,74.43-58.07,111.7-87.04,1.94-1.51,2.67-3.02,2.67-5.48-.08-45.54-.05-91.08-.05-136.63,0-.67,0-1.34,0-2.51-6.6,5.11-12.87,9.97-19.59,15.17-.07-1.39-.14-2.18-.14-2.98,0-6.87,0-13.73,0-20.6,0-.53.16-1.14-.04-1.59-.53-1.26-.93-2.96-1.92-3.51-.79-.44-2.64.23-3.56.98-8.62,6.93-17.13,13.98-25.68,21-2.77,2.27-5.53,4.56-8.31,6.83-.62.5-1.28.94-2.46,1.79,0-1.41,0-2.2,0-3,0-20.52,0-41.04-.03-61.56,0-2.03.68-4.64-2.22-5.32-2.76-.64-3.31,1.89-4.23,3.64-16.9,32.1-33.78,64.21-50.63,96.34-.45.85-1.04,1.95-.83,2.75.3,1.18,1.01,2.62,1.98,3.19,1.36.79,2.59-.23,3.31-1.58,2.85-5.39,5.71-10.78,8.54-16.18,12.23-23.28,24.45-46.56,36.67-69.84.3-.57.69-1.09,1.03-1.64.19.07.38.14.57.21Z"/>
      <path class="cls-1" d="M654.8,60.02c0-18.39,0-36.77,0-55.16,0-3.26-1.01-4.86-2.93-4.87-1.94,0-2.94,1.54-2.94,4.83-.03,36.69-.04,73.39-.05,110.08,0,3.29,1,4.83,2.96,4.84,1.96,0,2.99-1.62,2.99-4.81,0-18.31,0-36.62,0-54.93h-.02Z"/>
    </g>
  </g>
</svg>