<?xml version="1.0" encoding="UTF-8" standalone="no" ?>
<!DOCTYPE svg PUBLIC "-//W3C//DTD SVG 1.1//EN" "http://www.w3.org/Graphics/SVG/1.1/DTD/svg11.dtd">
<svg xmlns="http://www.w3.org/2000/svg" xmlns:xlink="http://www.w3.org/1999/xlink" version="1.1" width="1080" height="1080" viewBox="0 0 1080 1080" xml:space="preserve">
<desc>Created with Fabric.js 5.2.4</desc>
<defs>
</defs>
<g transform="matrix(1 0 0 1 540 540)" id="6d2194c3-3ae0-4f10-8af4-b8e95a04a19b"  >
</g>
<g transform="matrix(1 0 0 1 540 540)" id="9dce618b-897e-4828-8ac7-bf13dd063155"  >
<rect style="stroke: none; stroke-width: 1; stroke-dasharray: none; stroke-linecap: butt; stroke-dashoffset: 0; stroke-linejoin: miter; stroke-miterlimit: 4; fill: rgb(255,255,255); fill-rule: nonzero; opacity: 1; visibility: hidden;" vector-effect="non-scaling-stroke"  x="-540" y="-540" rx="0" ry="0" width="1080" height="1080" />
</g>
<g transform="matrix(1 0 0 1 578.69 540)"  >
<path style="stroke: none; stroke-width: 0; stroke-dasharray: none; stroke-linecap: butt; stroke-dashoffset: 0; stroke-linejoin: miter; stroke-miterlimit: 4; fill: rgb(29,40,86); fill-rule: nonzero; opacity: 1;" vector-effect="non-scaling-stroke"  transform=" translate(-651.81, -164.1)" d="M 712.86 33.29 C 712.86 35.19 712.86 37.08 712.86 38.98 C 712.86 55.15 712.72 71.33 712.97 87.5 C 713.01 90.41 712.15 91.97 710.03 93.68 C 697.52 103.80000000000001 685.12 114.06 672.6899999999999 124.27000000000001 C 672.04 124.80000000000001 671.3499999999999 125.31000000000002 670.8299999999999 125.95000000000002 C 669.7099999999999 127.33000000000001 669.8199999999999 129.68 671.02 130.79000000000002 C 672.52 132.19000000000003 673.86 131.64000000000001 675.26 130.48000000000002 C 684.67 122.71000000000002 694.11 114.99000000000002 703.54 107.24000000000002 C 719.75 93.93000000000002 735.9499999999999 80.61000000000003 752.16 67.31000000000003 C 752.8399999999999 66.75000000000003 753.56 66.25000000000003 754.63 65.45000000000003 C 754.75 66.54000000000003 754.88 67.18000000000004 754.89 67.82000000000004 C 754.91 74.23000000000003 754.97 80.64000000000004 754.83 87.04000000000003 C 754.8000000000001 88.13000000000004 754.11 89.56000000000003 753.25 90.23000000000003 C 720.04 116.22000000000003 686.77 142.13000000000002 653.55 168.11 C 652.15 169.20000000000002 651.31 169.02 650.02 168.01000000000002 C 618.06 143.03000000000003 586.12 118.01000000000002 553.99 93.23000000000002 C 550.09 90.22000000000001 548.16 87.29000000000002 548.6800000000001 82.31000000000002 C 549.1500000000001 77.71000000000002 548.7700000000001 73.01000000000002 548.7900000000001 68.36000000000001 C 548.7900000000001 67.56000000000002 548.8700000000001 66.76000000000002 548.95 65.40000000000002 C 550.07 66.23000000000002 550.7900000000001 66.71000000000002 551.45 67.26000000000002 C 577.09 88.31000000000002 602.73 109.36000000000001 628.35 130.43 C 629.83 131.65 631.23 132.23000000000002 632.76 130.69 C 634.05 129.39 633.9399999999999 126.87 632.43 125.52 C 630.3299999999999 123.63 628.1099999999999 121.89 625.93 120.1 C 614.6099999999999 110.81 603.3 101.52 591.9499999999999 92.25999999999999 C 590.9 91.41 590.28 90.60999999999999 590.7299999999999 89.17999999999999 C 590.9499999999999 88.47999999999999 590.81 87.66999999999999 590.81 86.89999999999999 C 590.81 69.96 590.81 53.029999999999994 590.8 36.08999999999999 C 590.8 35.139999999999986 590.8 34.17999999999999 591.3299999999999 33.07999999999999 C 591.68 33.599999999999994 592.0899999999999 34.08999999999999 592.3799999999999 34.63999999999999 C 607.1999999999999 62.83999999999999 622.0099999999999 91.04999999999998 636.8199999999999 119.25 C 637.03 119.65 637.27 120.05 637.4699999999999 120.46 C 638.2399999999999 121.97 639.3599999999999 123.02999999999999 641.1199999999999 122.35 C 642.8899999999999 121.66999999999999 643.2599999999999 120.05999999999999 642.9199999999998 118.35 C 642.7799999999999 117.61999999999999 642.3899999999999 116.92999999999999 642.0399999999998 116.25999999999999 C 625.1699999999998 84.13999999999999 608.2899999999998 52.02999999999999 591.3999999999999 19.929999999999993 C 590.4799999999999 18.189999999999994 589.9099999999999 15.669999999999993 587.1099999999999 16.43999999999999 C 584.3999999999999 17.18999999999999 585.0099999999999 19.65999999999999 585.0099999999999 21.629999999999992 C 584.9799999999999 42.14999999999999 584.9899999999999 62.66999999999999 584.9799999999999 83.19 C 584.9799999999999 84 584.9799999999999 84.81 584.9799999999999 86.23 C 583.81 85.4 583.0699999999999 84.94 582.4099999999999 84.4 C 571.1499999999999 75.17 559.9099999999999 65.9 548.5899999999998 56.74000000000001 C 547.6599999999999 55.99000000000001 545.7299999999998 55.24000000000001 545.0399999999998 55.69000000000001 C 543.9999999999999 56.37000000000001 543.1299999999999 58.08000000000001 543.0999999999998 59.38000000000001 C 542.9199999999998 66.62 543.0099999999998 73.87 543.0099999999998 81.12 C 543.0099999999998 82 543.0099999999998 82.88000000000001 543.0099999999998 84.51 C 536.1699999999997 79.21000000000001 529.9099999999997 74.35000000000001 523.2799999999997 69.2 L 523.2799999999997 71.65 C 523.2799999999997 117.42000000000002 523.2999999999997 163.19 523.2299999999998 208.96 C 523.2299999999998 211.02 523.9099999999997 212.28 525.4799999999998 213.5 C 564.5899999999998 243.95 603.6699999999998 274.44 642.7599999999998 304.92 C 645.7099999999998 307.22 648.6799999999997 309.48 651.8199999999997 311.91 C 656.5499999999997 308.23 661.2999999999997 304.56 666.0299999999997 300.87 C 703.2499999999998 271.84000000000003 740.4599999999998 242.8 777.7299999999998 213.82999999999998 C 779.6699999999998 212.32 780.3999999999997 210.80999999999997 780.3999999999997 208.35 C 780.3199999999997 162.81 780.3499999999998 117.27 780.3499999999998 71.72 C 780.3499999999998 71.05 780.3499999999998 70.38 780.3499999999998 69.21 C 773.7499999999998 74.32 767.4799999999998 79.17999999999999 760.7599999999998 84.38 C 760.6899999999997 82.99 760.6199999999998 82.19999999999999 760.6199999999998 81.39999999999999 C 760.6199999999998 74.52999999999999 760.6199999999998 67.66999999999999 760.6199999999998 60.79999999999999 C 760.6199999999998 60.26999999999999 760.7799999999997 59.65999999999999 760.5799999999998 59.20999999999999 C 760.0499999999998 57.94999999999999 759.6499999999999 56.249999999999986 758.6599999999999 55.69999999999999 C 757.8699999999999 55.25999999999999 756.0199999999999 55.929999999999986 755.0999999999999 56.679999999999986 C 746.4799999999999 63.609999999999985 737.9699999999999 70.65999999999998 729.42 77.67999999999998 C 726.65 79.94999999999997 723.89 82.23999999999998 721.11 84.50999999999998 C 720.49 85.00999999999998 719.83 85.44999999999997 718.65 86.29999999999998 C 718.65 84.88999999999999 718.65 84.09999999999998 718.65 83.29999999999998 C 718.65 62.77999999999999 718.65 42.259999999999984 718.62 21.73999999999998 C 718.62 19.70999999999998 719.3 17.09999999999998 716.4 16.41999999999998 C 713.64 15.77999999999998 713.09 18.30999999999998 712.17 20.05999999999998 C 695.27 52.15999999999998 678.39 84.26999999999998 661.54 116.39999999999998 C 661.0899999999999 117.24999999999997 660.5 118.34999999999998 660.7099999999999 119.14999999999998 C 661.0099999999999 120.32999999999998 661.7199999999999 121.76999999999998 662.6899999999999 122.33999999999997 C 664.05 123.12999999999998 665.28 122.10999999999997 665.9999999999999 120.75999999999998 C 668.8499999999999 115.36999999999998 671.7099999999999 109.97999999999998 674.5399999999998 104.57999999999998 C 686.7699999999999 81.29999999999998 698.9899999999999 58.01999999999998 711.2099999999998 34.73999999999998 C 711.5099999999998 34.16999999999998 711.8999999999999 33.64999999999998 712.2399999999998 33.09999999999998 C 712.4299999999998 33.16999999999998 712.6199999999998 33.23999999999998 712.8099999999998 33.30999999999998 Z" stroke-linecap="round" />
</g>
<g transform="matrix(1 0 0 1 578.5 436.98)"  >
<path style="stroke: none; stroke-width: 0; stroke-dasharray: none; stroke-linecap: butt; stroke-dashoffset: 0; stroke-linejoin: miter; stroke-miterlimit: 4; fill: rgb(232,106,49); fill-rule: nonzero; opacity: 1;" vector-effect="non-scaling-stroke"  transform=" translate(-651.86, -59.87)" d="M 654.8 60.02 C 654.8 41.63 654.8 23.25 654.8 4.8600000000000065 C 654.8 1.6000000000000068 653.79 6.217248937900877e-15 651.87 -0.00999999999999357 C 649.93 -0.00999999999999357 648.93 1.5300000000000065 648.93 4.8200000000000065 C 648.9 41.510000000000005 648.89 78.21000000000001 648.88 114.9 C 648.88 118.19000000000001 649.88 119.73 651.84 119.74000000000001 C 653.8000000000001 119.74000000000001 654.83 118.12 654.83 114.93 C 654.83 96.62 654.83 78.31 654.83 60.00000000000001 L 654.8100000000001 60.00000000000001 Z" stroke-linecap="round" />
</g>
</svg>